<?xml version="1.0" encoding="utf-8"?>
<!-- Generator: Adobe Illustrator 15.1.0, SVG Export Plug-In . SVG Version: 6.00 Build 0)  -->
<!DOCTYPE svg PUBLIC "-//W3C//DTD SVG 1.1//EN" "http://www.w3.org/Graphics/SVG/1.1/DTD/svg11.dtd">
<svg version="1.1" id="Layer_1" xmlns="http://www.w3.org/2000/svg" xmlns:xlink="http://www.w3.org/1999/xlink" x="0px" y="0px"
	 width="595.28px" height="841.89px" viewBox="0 0 595.28 841.89" enable-background="new 0 0 595.28 841.89" xml:space="preserve">
<path fill="#00485B" d="M244.434,132.285v4.137c0,3.59,4.521,5.696,9.753,5.696c5.619,0,9.598-2.419,9.598-6.868
	c0-5.617-6.323-7.412-12.723-9.909c-7.41-2.811-14.67-6.165-14.67-16.077c0-11.159,9.056-15.451,18.574-15.451
	c8.741,0,17.561,3.357,17.561,9.754v7.259h-9.287v-3.746c0-2.81-4.137-4.291-8.274-4.291c-4.525,0-8.269,1.872-8.269,6.086
	c0,5.071,5.147,6.867,10.92,9.052c8.277,2.965,16.55,6.242,16.55,16.622c0,11.315-9.522,16.544-19.98,16.544
	c-9.207,0-19.042-4.136-19.042-12.486v-6.322H244.434z"/>
<path fill="#00485B" d="M279.265,117.771h9.908v-7.413h-9.599V99.511h9.599v10.847h9.053v7.413h-9.053v16.778
	c0,6.79,5.151,7.727,7.961,7.727c1.092,0,1.796-0.079,1.796-0.079v8.115c0,0-1.251,0.234-3.046,0.234
	c-5.617,0-16.619-1.638-16.619-14.983V117.771z"/>
<path fill="#00485B" d="M322.574,125.575h2.502v-1.326c0-5.073-3.207-6.868-7.34-6.868c-5.938,0-11.238,3.824-11.238,3.824
	l-3.666-6.867c0,0,6.164-4.916,15.764-4.916c10.689,0,16.389,5.54,16.389,15.686v15.919c0,1.17,0.623,1.716,1.715,1.716h3.59v7.414
	h-9.361c-3.674,0-5.076-1.952-5.076-4.215v-0.467c0-1.248,0.234-2.031,0.234-2.031h-0.154c0,0-3.357,7.649-12.562,7.649
	c-6.793,0-13.193-3.979-13.193-12.097C300.176,126.823,316.178,125.575,322.574,125.575 M315.939,143.68
	c5.389,0,9.209-5.776,9.209-10.771v-1.325h-1.641c-3.902,0-13.346,0.623-13.346,6.632
	C310.162,141.182,312.273,143.68,315.939,143.68"/>
<path fill="#00485B" d="M347.156,158.427c3.199,0,5.773-1.716,7.021-4.603l1.094-2.498l-13.656-33.555h-4.762v-7.413h19.59v7.413
	h-4.68l7.256,20.133c0.701,1.951,0.857,4.137,0.857,4.137h0.232c0,0,0.312-2.186,1.096-4.137l7.174-20.133h-4.6v-7.413h18.807v7.413
	h-4.525l-14.668,37.535c-3.045,7.883-8.979,11.238-15.77,11.238c-5.773,0-9.674-2.73-9.674-2.73l3.199-7.259
	C341.148,156.555,343.49,158.427,347.156,158.427"/>
<path fill="#00485B" d="M386.176,102.163h-6.09V94.75h16.004v17.246c0,1.95-0.158,3.356-0.158,3.356h0.158
	c0,0,3.588-5.93,11.939-5.93c10.77,0,17.713,8.505,17.713,20.834c0,12.642-7.805,20.837-18.342,20.837
	c-8.658,0-11.859-6.322-11.859-6.322h-0.156c0,0,0.156,1.407,0.156,2.966v2.419h-9.365V102.163z M405.688,142.742
	c5.463,0,10.066-4.447,10.066-12.33c0-7.569-4.057-12.485-9.91-12.485c-5.15,0-9.99,3.746-9.99,12.565
	C395.854,136.656,399.053,142.742,405.688,142.742"/>
<path fill="#00485B" d="M429.492,102.163h-6.17V94.75h15.998v42.141c0,3.588,0.777,5.46,4.064,5.46c1.086,0,1.867-0.076,1.867-0.076
	v7.958c0,0-1.637,0.236-3.588,0.236c-6.32,0-12.172-2.108-12.172-12.955V102.163z"/>
<path fill="#00485B" d="M465.387,109.422c11.473,0,17.713,8.349,17.713,18.883c0,1.172-0.234,3.356-0.234,3.356h-27.549
	c0.625,7.335,5.934,11.082,11.941,11.082c6.477,0,11.551-4.214,11.551-4.214l3.822,7.023c0,0-6.086,5.541-16.074,5.541
	c-13.189,0-21.383-9.52-21.383-20.837C445.174,118.005,453.445,109.422,465.387,109.422 M472.877,125.808
	c-0.156-5.461-3.51-8.737-7.725-8.737c-5.074,0-8.664,3.508-9.598,8.737H472.877z"/>
<path fill="#00485B" d="M217.396,136.412c-7.944,29.936-38.652,47.764-68.59,39.821c-29.937-7.944-47.764-38.651-39.82-68.588
	c7.942-29.937,38.65-47.765,68.588-39.822C207.509,75.767,225.339,106.475,217.396,136.412"/>
<path fill="#D6ECF1" d="M219.098,713.744c-7.944,29.938-38.652,47.766-68.59,39.822c-29.937-7.945-47.764-38.652-39.82-68.588
	c7.942-29.938,38.65-47.766,68.588-39.822C209.211,653.1,227.041,683.809,219.098,713.744"/>
<path fill="#64C1C6" d="M219.098,578.611c-7.944,29.936-38.652,47.764-68.59,39.822c-29.937-7.945-47.764-38.652-39.82-68.59
	c7.942-29.936,38.65-47.764,68.588-39.82C209.211,517.967,227.041,548.674,219.098,578.611"/>
<path fill="#0094A5" d="M219.098,443.479c-7.944,29.936-38.652,47.764-68.59,39.82c-29.937-7.943-47.764-38.65-39.82-68.587
	c7.942-29.937,38.65-47.765,68.588-39.822C209.211,382.833,227.041,413.542,219.098,443.479"/>
<path fill="#00485B" d="M219.098,308.345c-7.944,29.937-38.652,47.765-68.59,39.821c-29.937-7.944-47.764-38.651-39.82-68.588
	c7.942-29.938,38.65-47.766,68.588-39.822C209.211,247.7,227.041,278.409,219.098,308.345"/>
<path fill="#64C1C6" d="M171.417,131.322c0,4.893-3.683,8.857-8.227,8.857s-8.228-3.964-8.228-8.857
	c0-4.891,3.684-8.857,8.228-8.857S171.417,126.431,171.417,131.322"/>
<path fill="#64C1C6" d="M150.755,113.608c0,4.891-3.684,8.856-8.228,8.856c-4.545,0-8.229-3.965-8.229-8.856
	c0-4.893,3.684-8.856,8.229-8.856C147.071,104.752,150.755,108.715,150.755,113.608"/>
<path fill="#64C1C6" d="M150.755,113.608c0,0,0.771,8.856,12.436,8.856c3.056,0,1.062,11.354,1.062,11.354l-9.291-2.496
	c0,0,1.641-9.769-12.435-8.858l2.64-5.161L150.755,113.608z"/>
<path fill="#64C1C6" d="M175.625,113.608c0,4.891,3.684,8.856,8.229,8.856c4.544,0,8.23-3.965,8.23-8.856
	c0-4.893-3.686-8.856-8.23-8.856C179.309,104.752,175.625,108.715,175.625,113.608"/>
<path fill="#64C1C6" d="M175.625,113.608c0,0-0.77,8.856-12.434,8.856c-3.058,0-1.061,11.354-1.061,11.354l9.288-2.496
	c0,0-1.639-9.769,12.436-8.858l-2.641-5.161L175.625,113.608z"/>
<path fill="#D6ECF1" d="M150.755,92.019c0,4.89-3.684,8.856-8.228,8.856c-4.545,0-8.229-3.966-8.229-8.856
	c0-4.894,3.684-8.858,8.229-8.858C147.071,83.161,150.755,87.125,150.755,92.019"/>
<path fill="#D6ECF1" d="M171.417,109.732c0,4.893-3.683,8.858-8.227,8.858s-8.228-3.965-8.228-8.858
	c0-4.891,3.684-8.857,8.228-8.857S171.417,104.841,171.417,109.732"/>
<path fill="#D6ECF1" d="M150.755,92.019c0,0,0.771,8.856,12.436,8.856c3.056,0,1.062,11.353,1.062,11.353l-9.291-2.495
	c0,0,1.641-9.769-12.435-8.858l2.64-5.162L150.755,92.019z"/>
<path fill="#D6ECF1" d="M175.625,92.019c0,4.89,3.684,8.856,8.229,8.856c4.544,0,8.23-3.966,8.23-8.856
	c0-4.894-3.686-8.858-8.23-8.858C179.309,83.161,175.625,87.125,175.625,92.019"/>
<path fill="#D6ECF1" d="M175.625,92.019c0,0-0.77,8.856-12.434,8.856c-3.058,0-1.061,11.353-1.061,11.353l9.288-2.495
	c0,0-1.639-9.769,12.436-8.858l-2.641-5.162L175.625,92.019z"/>
<path fill="#0094A5" d="M150.755,135.196c0,4.893-3.684,8.859-8.228,8.859c-4.545,0-8.229-3.966-8.229-8.859
	c0-4.892,3.684-8.856,8.229-8.856C147.071,126.34,150.755,130.304,150.755,135.196"/>
<path fill="#0094A5" d="M171.417,152.911c0,4.893-3.683,8.858-8.227,8.858s-8.228-3.965-8.228-8.858
	c0-4.892,3.684-8.855,8.228-8.855S171.417,148.019,171.417,152.911"/>
<path fill="#0094A5" d="M150.755,135.196c0,0,0.771,8.859,12.436,8.859c3.056,0,1.062,11.351,1.062,11.351l-9.291-2.495
	c0,0,1.641-9.768-12.435-8.856l2.64-5.164L150.755,135.196z"/>
<path fill="#0094A5" d="M175.625,135.196c0,4.893,3.684,8.859,8.229,8.859c4.544,0,8.23-3.966,8.23-8.859
	c0-4.892-3.686-8.856-8.23-8.856C179.309,126.34,175.625,130.304,175.625,135.196"/>
<path fill="#0094A5" d="M175.625,135.196c0,0-0.77,8.859-12.434,8.859c-3.058,0-1.061,11.351-1.061,11.351l9.288-2.495
	c0,0-1.639-9.768,12.436-8.856l-2.641-5.164L175.625,135.196z"/>
<polygon fill="#0094A5" points="377.115,164.587 378.344,164.587 378.344,157.257 376.408,157.257 376.408,158.804 374.803,158.804 
	374.803,155.739 383.795,155.739 383.795,158.804 382.191,158.804 382.191,157.257 380.238,157.257 380.238,164.587 
	381.482,164.587 381.482,166.004 377.115,166.004 "/>
<polygon fill="#0094A5" points="385.199,164.587 386.428,164.587 386.428,157.17 385.199,157.17 385.199,155.739 389.564,155.739 
	389.564,157.17 388.322,157.17 388.322,160.134 392.992,160.134 392.992,157.17 391.748,157.17 391.748,155.739 396.113,155.739 
	396.113,157.17 394.885,157.17 394.885,164.587 396.113,164.587 396.113,166.004 391.748,166.004 391.748,164.587 392.992,164.587 
	392.992,161.652 388.322,161.652 388.322,164.587 389.564,164.587 389.564,166.004 385.199,166.004 "/>
<polygon fill="#0094A5" points="397.852,164.587 399.08,164.587 399.08,157.17 397.852,157.17 397.852,155.739 405.471,155.739 
	405.471,158.385 403.852,158.385 403.852,157.257 400.973,157.257 400.973,160.076 404.357,160.076 404.357,161.595 
	400.973,161.595 400.973,164.486 404.068,164.486 404.068,163.331 405.686,163.331 405.686,166.004 397.852,166.004 "/>
<path fill="#0094A5" d="M407.395,164.587h1.227v-7.417h-1.227v-1.431h4.525c0.75,0,1.373,0.044,1.949,0.217
	c1.145,0.376,1.896,1.301,1.896,2.747c0,1.431-0.752,2.443-1.938,2.849v0.028c0,0,0.303,0.159,0.506,0.535l1.186,2.14
	c0.143,0.26,0.348,0.332,0.695,0.332h0.33v1.417h-1.199c-0.854,0-1.113-0.173-1.432-0.766l-1.459-2.646
	c-0.217-0.391-0.404-0.52-0.998-0.52h-0.939v2.515h1.186v1.417h-4.309V164.587z M412.225,160.554c0.996,0,1.645-0.593,1.645-1.692
	c0-0.665-0.244-1.185-0.809-1.417c-0.289-0.13-0.68-0.188-1.156-0.188h-1.387v3.297H412.225z"/>
<path fill="#0094A5" d="M417.5,164.587h0.941l3.078-8.848h2.156l3.08,8.848h0.939v1.417h-3.861v-1.417h1.014l-0.637-1.922h-3.238
	l-0.637,1.922h1.012v1.417H417.5V164.587z M423.777,161.19l-0.969-2.907c-0.16-0.505-0.189-0.896-0.189-0.896h-0.043
	c0,0-0.043,0.391-0.188,0.896l-0.982,2.907H423.777z"/>
<path fill="#0094A5" d="M428.881,164.587h1.229v-7.417h-1.229v-1.431h4.916c0.607,0,1.229,0.043,1.734,0.261
	c1.113,0.462,1.834,1.604,1.834,3.035c0,1.461-0.764,2.704-1.949,3.123c-0.477,0.16-0.998,0.204-1.576,0.204h-1.838v2.225h1.244
	v1.417h-4.365V164.587z M433.594,160.843c0.434,0,0.752-0.058,1.041-0.203c0.551-0.275,0.84-0.853,0.84-1.605
	c0-0.708-0.277-1.257-0.752-1.532c-0.291-0.174-0.65-0.246-1.113-0.246h-1.607v3.586H433.594z"/>
<polygon fill="#0094A5" points="438.756,164.587 439.986,164.587 439.986,157.17 438.756,157.17 438.756,155.739 446.377,155.739 
	446.377,158.385 444.758,158.385 444.758,157.257 441.879,157.257 441.879,160.076 445.262,160.076 445.262,161.595 
	441.879,161.595 441.879,164.486 444.973,164.486 444.973,163.331 446.594,163.331 446.594,166.004 438.756,166.004 "/>
<path fill="#0094A5" d="M449.256,157.17h-1.229v-1.431h4.365v1.431h-1.244v4.974c0,0.578,0.131,1.098,0.348,1.461
	c0.359,0.577,1.068,0.91,1.938,0.91c0.854,0,1.545-0.318,1.922-0.926c0.232-0.39,0.348-0.867,0.348-1.46v-4.959h-1.229v-1.431h4.352
	v1.431h-1.229v4.974c0,0.997-0.275,1.922-0.752,2.573c-0.752,0.984-2.039,1.461-3.412,1.461c-1.461,0-2.705-0.536-3.414-1.446
	c-0.535-0.666-0.764-1.561-0.764-2.588V157.17z"/>
<polygon fill="#0094A5" points="462.268,164.587 463.496,164.587 463.496,157.257 461.559,157.257 461.559,158.804 459.953,158.804 
	459.953,155.739 468.949,155.739 468.949,158.804 467.344,158.804 467.344,157.257 465.391,157.257 465.391,164.587 
	466.635,164.587 466.635,166.004 462.268,166.004 "/>
<polygon fill="#0094A5" points="470.352,164.587 471.58,164.587 471.58,157.17 470.352,157.17 470.352,155.739 474.719,155.739 
	474.719,157.17 473.475,157.17 473.475,164.587 474.719,164.587 474.719,166.004 470.352,166.004 "/>
<path fill="#0094A5" d="M481.658,155.565c1.242,0,4.004,0.435,4.004,2.054v1.388h-1.719v-0.796c0-0.767-1.359-1.026-2.197-1.026
	c-1.98,0-3.428,1.388-3.428,3.557c0,2.313,1.504,3.817,3.527,3.817c0.621,0,2.227-0.202,2.227-1.013v-0.795h1.721v1.402
	c0,1.533-2.645,2.025-4.062,2.025c-3.109,0-5.365-2.357-5.365-5.349C476.365,157.792,478.68,155.565,481.658,155.565"/>
<path fill="#0094A5" d="M489.223,162.694v0.766c0,0.665,0.838,1.055,1.807,1.055c1.041,0,1.775-0.448,1.775-1.272
	c0-1.041-1.168-1.373-2.354-1.836c-1.375-0.521-2.719-1.143-2.719-2.978c0-2.068,1.676-2.863,3.439-2.863
	c1.621,0,3.254,0.621,3.254,1.808v1.343h-1.721v-0.694c0-0.519-0.766-0.794-1.533-0.794c-0.838,0-1.531,0.346-1.531,1.127
	c0,0.941,0.953,1.272,2.023,1.677c1.533,0.549,3.066,1.158,3.066,3.08c0,2.097-1.766,3.066-3.701,3.066
	c-1.709,0-3.529-0.767-3.529-2.313v-1.172H489.223z"/>
<path fill="#C2370C" d="M354.381,443.479c-7.943,29.936-38.652,47.764-68.59,39.82c-29.937-7.943-47.764-38.65-39.82-68.587
	c7.942-29.938,38.65-47.766,68.588-39.822C344.494,382.833,362.324,413.542,354.381,443.479"/>
<rect x="268.736" y="420.945" fill="none" width="62.878" height="98"/>
<text transform="matrix(1 0 0 1 280.9038 429.4648)" fill="#FFFFFF" font-family="'MyriadPro-Regular'" font-size="12">C2370C</text>
<text transform="matrix(1 0 0 1 144.1284 429.0947)" fill="#FFFFFF" font-family="'MyriadPro-Regular'" font-size="12">0094A5</text>
<text transform="matrix(1 0 0 1 142.5273 564.2285)" font-family="'MyriadPro-Regular'" font-size="12">64C1C6</text>
<text transform="matrix(1 0 0 1 145.7549 700.0547)" font-family="'MyriadPro-Regular'" font-size="12">D6ECF1</text>
<text transform="matrix(1 0 0 1 145.7549 293.9614)" fill="#FFFFFF" font-family="'MyriadPro-Regular'" font-size="12">00485B</text>
</svg>
