<?xml version="1.0" encoding="utf-8"?>
<!-- Generator: Adobe Illustrator 15.1.0, SVG Export Plug-In . SVG Version: 6.00 Build 0)  -->
<!DOCTYPE svg PUBLIC "-//W3C//DTD SVG 1.1//EN" "http://www.w3.org/Graphics/SVG/1.1/DTD/svg11.dtd">
<svg version="1.1" id="Layer_1" xmlns="http://www.w3.org/2000/svg" xmlns:xlink="http://www.w3.org/1999/xlink" x="0px" y="0px"
	 width="395px" height="121px" viewBox="0 0 395 121" enable-background="new 0 0 395 121" xml:space="preserve">
<g>
	<path fill="#00485B" d="M140.36,71.285v4.137c0,3.59,4.521,5.696,9.753,5.696c5.619,0,9.598-2.419,9.598-6.868
		c0-5.617-6.323-7.412-12.723-9.908c-7.41-2.812-14.67-6.166-14.67-16.078c0-11.159,9.056-15.451,18.574-15.451
		c8.741,0,17.561,3.357,17.561,9.754v7.259h-9.287V46.08c0-2.81-4.137-4.291-8.274-4.291c-4.525,0-8.269,1.872-8.269,6.086
		c0,5.071,5.147,6.867,10.92,9.052c8.277,2.965,16.55,6.243,16.55,16.622c0,11.315-9.522,16.545-19.98,16.545
		c-9.207,0-19.042-4.137-19.042-12.486v-6.322H140.36z"/>
	<path fill="#00485B" d="M175.191,56.771h9.908v-7.413H175.5V38.511h9.599v10.847h9.053v7.413h-9.053v16.778
		c0,6.789,5.151,7.727,7.961,7.727c1.092,0,1.796-0.078,1.796-0.078v8.114c0,0-1.251,0.233-3.046,0.233
		c-5.617,0-16.619-1.637-16.619-14.982V56.771z"/>
	<path fill="#00485B" d="M218.5,64.574h2.502v-1.326c0-5.072-3.207-6.867-7.34-6.867c-5.938,0-11.238,3.824-11.238,3.824
		l-3.666-6.867c0,0,6.164-4.916,15.764-4.916c10.689,0,16.389,5.54,16.389,15.686v15.92c0,1.17,0.623,1.715,1.715,1.715h3.59v7.414
		h-9.361c-3.674,0-5.076-1.951-5.076-4.215v-0.467c0-1.248,0.234-2.031,0.234-2.031h-0.154c0,0-3.357,7.649-12.562,7.649
		c-6.793,0-13.193-3.979-13.193-12.097C196.102,65.822,212.104,64.574,218.5,64.574 M211.866,82.68
		c5.389,0,9.209-5.775,9.209-10.771v-1.324h-1.641c-3.902,0-13.346,0.623-13.346,6.632C206.088,80.182,208.2,82.68,211.866,82.68"/>
	<path fill="#00485B" d="M243.083,97.427c3.199,0,5.773-1.716,7.021-4.603l1.094-2.498l-13.656-33.555h-4.762v-7.413h19.59v7.413
		h-4.68l7.256,20.133c0.701,1.951,0.857,4.137,0.857,4.137h0.232c0,0,0.312-2.186,1.096-4.137l7.174-20.133h-4.6v-7.413h18.807
		v7.413h-4.525l-14.668,37.535c-3.045,7.884-8.979,11.238-15.77,11.238c-5.773,0-9.674-2.729-9.674-2.729l3.199-7.26
		C237.075,95.555,239.417,97.427,243.083,97.427"/>
	<path fill="#00485B" d="M282.102,41.163h-6.09V33.75h16.004v17.246c0,1.95-0.158,3.356-0.158,3.356h0.158
		c0,0,3.588-5.93,11.939-5.93c10.77,0,17.713,8.505,17.713,20.833c0,12.643-7.805,20.838-18.342,20.838
		c-8.658,0-11.859-6.322-11.859-6.322h-0.156c0,0,0.156,1.406,0.156,2.966v2.419h-9.365V41.163z M301.613,81.742
		c5.463,0,10.066-4.447,10.066-12.33c0-7.569-4.057-12.485-9.91-12.485c-5.15,0-9.99,3.746-9.99,12.565
		C291.78,75.656,294.979,81.742,301.613,81.742"/>
	<path fill="#00485B" d="M325.418,41.163h-6.17V33.75h15.998v42.141c0,3.588,0.777,5.461,4.064,5.461
		c1.086,0,1.867-0.076,1.867-0.076v7.957c0,0-1.637,0.236-3.588,0.236c-6.32,0-12.172-2.107-12.172-12.955V41.163z"/>
	<path fill="#00485B" d="M361.312,48.422c11.473,0,17.713,8.349,17.713,18.883c0,1.172-0.234,3.355-0.234,3.355h-27.549
		c0.625,7.336,5.934,11.082,11.941,11.082c6.477,0,11.551-4.213,11.551-4.213l3.822,7.022c0,0-6.086,5.541-16.074,5.541
		c-13.189,0-21.383-9.521-21.383-20.837C341.1,57.005,349.371,48.422,361.312,48.422 M368.803,64.808
		c-0.156-5.461-3.51-8.737-7.725-8.737c-5.074,0-8.664,3.508-9.598,8.737H368.803z"/>
	<path fill="#00485B" d="M113.322,75.412c-7.944,29.936-38.652,47.764-68.59,39.821c-29.937-7.944-47.764-38.651-39.82-68.588
		C12.854,16.708,43.562-1.12,73.5,6.823C103.435,14.767,121.265,45.475,113.322,75.412"/>
	<path fill="#64C1C6" d="M67.344,70.322c0,4.893-3.683,8.857-8.227,8.857s-8.228-3.965-8.228-8.857c0-4.891,3.684-8.857,8.228-8.857
		S67.344,65.432,67.344,70.322"/>
	<path fill="#64C1C6" d="M46.682,52.608c0,4.891-3.684,8.856-8.228,8.856c-4.545,0-8.229-3.965-8.229-8.856
		c0-4.893,3.684-8.856,8.229-8.856C42.998,43.752,46.682,47.715,46.682,52.608"/>
	<path fill="#64C1C6" d="M46.682,52.608c0,0,0.771,8.856,12.436,8.856c3.056,0,1.062,11.354,1.062,11.354l-9.291-2.496
		c0,0,1.641-9.769-12.435-8.858l2.64-5.161L46.682,52.608z"/>
	<path fill="#64C1C6" d="M71.551,52.608c0,4.891,3.684,8.856,8.229,8.856c4.544,0,8.23-3.965,8.23-8.856
		c0-4.893-3.686-8.856-8.23-8.856C75.235,43.752,71.551,47.715,71.551,52.608"/>
	<path fill="#64C1C6" d="M71.551,52.608c0,0-0.77,8.856-12.434,8.856c-3.058,0-1.061,11.354-1.061,11.354l9.288-2.496
		c0,0-1.639-9.769,12.436-8.858l-2.641-5.161L71.551,52.608z"/>
	<path fill="#D6ECF1" d="M46.682,31.019c0,4.89-3.684,8.856-8.228,8.856c-4.545,0-8.229-3.966-8.229-8.856
		c0-4.894,3.684-8.858,8.229-8.858C42.998,22.161,46.682,26.125,46.682,31.019"/>
	<path fill="#D6ECF1" d="M67.344,48.732c0,4.893-3.683,8.858-8.227,8.858s-8.228-3.965-8.228-8.858c0-4.891,3.684-8.857,8.228-8.857
		S67.344,43.841,67.344,48.732"/>
	<path fill="#D6ECF1" d="M46.682,31.019c0,0,0.771,8.856,12.436,8.856c3.056,0,1.062,11.353,1.062,11.353l-9.291-2.495
		c0,0,1.641-9.769-12.435-8.858l2.64-5.162L46.682,31.019z"/>
	<path fill="#D6ECF1" d="M71.551,31.019c0,4.89,3.684,8.856,8.229,8.856c4.544,0,8.23-3.966,8.23-8.856
		c0-4.894-3.686-8.858-8.23-8.858C75.235,22.161,71.551,26.125,71.551,31.019"/>
	<path fill="#D6ECF1" d="M71.551,31.019c0,0-0.77,8.856-12.434,8.856c-3.058,0-1.061,11.353-1.061,11.353l9.288-2.495
		c0,0-1.639-9.769,12.436-8.858l-2.641-5.162L71.551,31.019z"/>
	<path fill="#0094A5" d="M46.682,74.196c0,4.894-3.684,8.858-8.228,8.858c-4.545,0-8.229-3.965-8.229-8.858
		c0-4.892,3.684-8.856,8.229-8.856C42.998,65.34,46.682,69.305,46.682,74.196"/>
	<path fill="#0094A5" d="M67.344,91.911c0,4.894-3.683,8.858-8.227,8.858s-8.228-3.965-8.228-8.858c0-4.892,3.684-8.854,8.228-8.854
		S67.344,87.02,67.344,91.911"/>
	<path fill="#0094A5" d="M46.682,74.196c0,0,0.771,8.858,12.436,8.858c3.056,0,1.062,11.352,1.062,11.352l-9.291-2.495
		c0,0,1.641-9.769-12.435-8.856l2.64-5.164L46.682,74.196z"/>
	<path fill="#0094A5" d="M71.551,74.196c0,4.894,3.684,8.858,8.229,8.858c4.544,0,8.23-3.965,8.23-8.858
		c0-4.892-3.686-8.856-8.23-8.856C75.235,65.34,71.551,69.305,71.551,74.196"/>
	<path fill="#0094A5" d="M71.551,74.196c0,0-0.77,8.858-12.434,8.858c-3.058,0-1.061,11.352-1.061,11.352l9.288-2.495
		c0,0-1.639-9.769,12.436-8.856l-2.641-5.164L71.551,74.196z"/>
	<polygon fill="#0094A5" points="273.042,103.588 274.27,103.588 274.27,96.258 272.334,96.258 272.334,97.805 270.729,97.805 
		270.729,94.739 279.721,94.739 279.721,97.805 278.118,97.805 278.118,96.258 276.165,96.258 276.165,103.588 277.409,103.588 
		277.409,105.004 273.042,105.004 	"/>
	<polygon fill="#0094A5" points="281.125,103.588 282.354,103.588 282.354,96.17 281.125,96.17 281.125,94.739 285.491,94.739 
		285.491,96.17 284.249,96.17 284.249,99.135 288.918,99.135 288.918,96.17 287.674,96.17 287.674,94.739 292.04,94.739 
		292.04,96.17 290.811,96.17 290.811,103.588 292.04,103.588 292.04,105.004 287.674,105.004 287.674,103.588 288.918,103.588 
		288.918,100.652 284.249,100.652 284.249,103.588 285.491,103.588 285.491,105.004 281.125,105.004 	"/>
	<polygon fill="#0094A5" points="293.778,103.588 295.006,103.588 295.006,96.17 293.778,96.17 293.778,94.739 301.396,94.739 
		301.396,97.385 299.777,97.385 299.777,96.258 296.899,96.258 296.899,99.076 300.283,99.076 300.283,100.596 296.899,100.596 
		296.899,103.486 299.994,103.486 299.994,102.33 301.611,102.33 301.611,105.004 293.778,105.004 	"/>
	<path fill="#0094A5" d="M303.32,103.588h1.227V96.17h-1.227v-1.431h4.525c0.75,0,1.373,0.044,1.949,0.217
		c1.145,0.376,1.896,1.302,1.896,2.747c0,1.432-0.752,2.443-1.938,2.85v0.027c0,0,0.303,0.159,0.506,0.535l1.186,2.141
		c0.143,0.26,0.348,0.332,0.695,0.332h0.33v1.416h-1.199c-0.854,0-1.113-0.173-1.432-0.766l-1.459-2.646
		c-0.217-0.391-0.404-0.52-0.998-0.52h-0.939v2.516h1.186v1.416h-4.309V103.588z M308.15,99.555c0.996,0,1.645-0.594,1.645-1.692
		c0-0.665-0.244-1.185-0.809-1.417c-0.289-0.131-0.68-0.188-1.156-0.188h-1.387v3.297H308.15z"/>
	<path fill="#0094A5" d="M313.426,103.588h0.941l3.078-8.849h2.156l3.08,8.849h0.939v1.416h-3.861v-1.416h1.014l-0.637-1.922h-3.238
		l-0.637,1.922h1.012v1.416h-3.848V103.588z M319.703,100.19l-0.969-2.907c-0.16-0.505-0.189-0.896-0.189-0.896h-0.043
		c0,0-0.043,0.392-0.188,0.896l-0.982,2.907H319.703z"/>
	<path fill="#0094A5" d="M324.807,103.588h1.229V96.17h-1.229v-1.431h4.916c0.607,0,1.229,0.043,1.734,0.261
		c1.113,0.463,1.834,1.604,1.834,3.035c0,1.461-0.764,2.704-1.949,3.123c-0.477,0.16-0.998,0.204-1.576,0.204h-1.838v2.226h1.244
		v1.416h-4.365V103.588z M329.52,99.844c0.434,0,0.752-0.059,1.041-0.203c0.551-0.275,0.84-0.854,0.84-1.605
		c0-0.708-0.277-1.257-0.752-1.531c-0.291-0.175-0.65-0.246-1.113-0.246h-1.607v3.586H329.52z"/>
	<polygon fill="#0094A5" points="334.682,103.588 335.912,103.588 335.912,96.17 334.682,96.17 334.682,94.739 342.303,94.739 
		342.303,97.385 340.684,97.385 340.684,96.258 337.805,96.258 337.805,99.076 341.188,99.076 341.188,100.596 337.805,100.596 
		337.805,103.486 340.898,103.486 340.898,102.33 342.52,102.33 342.52,105.004 334.682,105.004 	"/>
	<path fill="#0094A5" d="M345.182,96.17h-1.229v-1.43h4.365v1.43h-1.244v4.975c0,0.578,0.131,1.098,0.348,1.461
		c0.359,0.577,1.068,0.91,1.938,0.91c0.854,0,1.545-0.318,1.922-0.926c0.232-0.391,0.348-0.867,0.348-1.461V96.17H350.4v-1.43h4.352
		v1.43h-1.229v4.975c0,0.997-0.275,1.922-0.752,2.572c-0.752,0.984-2.039,1.462-3.412,1.462c-1.461,0-2.705-0.536-3.414-1.446
		c-0.535-0.666-0.764-1.561-0.764-2.588V96.17z"/>
	<polygon fill="#0094A5" points="358.193,103.588 359.422,103.588 359.422,96.258 357.484,96.258 357.484,97.805 355.879,97.805 
		355.879,94.739 364.875,94.739 364.875,97.805 363.27,97.805 363.27,96.258 361.316,96.258 361.316,103.588 362.561,103.588 
		362.561,105.004 358.193,105.004 	"/>
	<polygon fill="#0094A5" points="366.277,103.588 367.506,103.588 367.506,96.17 366.277,96.17 366.277,94.739 370.645,94.739 
		370.645,96.17 369.4,96.17 369.4,103.588 370.645,103.588 370.645,105.004 366.277,105.004 	"/>
	<path fill="#0094A5" d="M377.584,94.565c1.242,0,4.004,0.435,4.004,2.054v1.389h-1.719v-0.797c0-0.767-1.359-1.025-2.197-1.025
		c-1.98,0-3.428,1.389-3.428,3.557c0,2.313,1.504,3.817,3.527,3.817c0.621,0,2.227-0.202,2.227-1.013v-0.795h1.721v1.401
		c0,1.533-2.645,2.024-4.062,2.024c-3.109,0-5.365-2.356-5.365-5.348C372.291,96.793,374.605,94.565,377.584,94.565"/>
	<path fill="#0094A5" d="M385.148,101.693v0.767c0,0.665,0.838,1.056,1.807,1.056c1.041,0,1.775-0.449,1.775-1.273
		c0-1.041-1.168-1.373-2.354-1.836c-1.375-0.521-2.719-1.143-2.719-2.978c0-2.067,1.676-2.862,3.439-2.862
		c1.621,0,3.254,0.621,3.254,1.808v1.343h-1.721v-0.693c0-0.52-0.766-0.795-1.533-0.795c-0.838,0-1.531,0.346-1.531,1.127
		c0,0.941,0.953,1.272,2.023,1.678c1.533,0.549,3.066,1.158,3.066,3.08c0,2.097-1.766,3.065-3.701,3.065
		c-1.709,0-3.529-0.767-3.529-2.313v-1.172H385.148z"/>
</g>
</svg>
