<?xml version="1.0" encoding="utf-8"?>
<!-- Generator: Adobe Illustrator 15.0.0, SVG Export Plug-In  -->
<!DOCTYPE svg PUBLIC "-//W3C//DTD SVG 1.1//EN" "http://www.w3.org/Graphics/SVG/1.1/DTD/svg11.dtd" [
	<!ENTITY ns_flows "http://ns.adobe.com/Flows/1.0/">
]>
<svg version="1.1"
	 xmlns="http://www.w3.org/2000/svg" xmlns:xlink="http://www.w3.org/1999/xlink" xmlns:a="http://ns.adobe.com/AdobeSVGViewerExtensions/3.0/"
	 x="0px" y="0px" width="279px" height="247px" viewBox="-16.453 -6.021 279 247"
	 overflow="visible" enable-background="new -16.453 -6.021 279 247" xml:space="preserve">
<defs>
</defs>
<path fill="#005586" d="M233.548,149.23c-16.822,63.378-81.842,101.129-145.233,84.313C24.931,216.72-12.82,151.701,4.002,88.319
	C20.819,24.931,85.839-12.814,149.229,3.999C212.611,20.823,250.362,85.843,233.548,149.23"/>
<path fill="#A0D0F0" d="M136.195,138.455c0,10.358-7.799,18.746-17.422,18.746s-17.422-8.388-17.422-18.746
	c0-10.364,7.799-18.758,17.422-18.758S136.195,128.09,136.195,138.455"/>
<path fill="#A0D0F0" d="M92.444,100.946c0,10.355-7.799,18.752-17.422,18.752c-9.626,0-17.426-8.397-17.426-18.752
	c0-10.366,7.8-18.75,17.426-18.75C84.645,82.196,92.444,90.581,92.444,100.946"/>
<path fill="#A0D0F0" d="M92.444,100.946c0,0,1.629,18.752,26.328,18.752c6.476,0,2.253,24.032,2.253,24.032l-19.672-5.276
	c0,0,3.473-20.688-26.331-18.756l5.588-10.935L92.444,100.946z"/>
<path fill="#A0D0F0" d="M145.101,100.946c0,10.355,7.799,18.752,17.428,18.752c9.623,0,17.426-8.397,17.426-18.752
	c0-10.366-7.803-18.75-17.426-18.75C152.9,82.196,145.101,90.581,145.101,100.946"/>
<path fill="#A0D0F0" d="M145.101,100.946c0,0-1.624,18.752-26.322,18.752c-6.479,0-2.253,24.032-2.253,24.032l19.669-5.276
	c0,0-3.47-20.688,26.334-18.756l-5.594-10.935L145.101,100.946z"/>
<path fill="#CADCE7" d="M92.444,55.229c0,10.353-7.799,18.752-17.422,18.752c-9.626,0-17.426-8.399-17.426-18.752
	c0-10.361,7.8-18.758,17.426-18.758C84.645,36.472,92.444,44.869,92.444,55.229"/>
<path fill="#CADCE7" d="M136.195,92.735c0,10.366-7.799,18.756-17.422,18.756s-17.422-8.391-17.422-18.756
	c0-10.357,7.799-18.746,17.422-18.746S136.195,82.378,136.195,92.735"/>
<path fill="#CADCE7" d="M92.444,55.229c0,0,1.629,18.752,26.328,18.752c6.476,0,2.253,24.037,2.253,24.037l-19.672-5.282
	c0,0,3.473-20.681-26.331-18.755l5.588-10.93L92.444,55.229z"/>
<path fill="#CADCE7" d="M145.101,55.229c0,10.353,7.799,18.752,17.428,18.752c9.623,0,17.426-8.399,17.426-18.752
	c0-10.361-7.803-18.758-17.426-18.758C152.9,36.472,145.101,44.869,145.101,55.229"/>
<path fill="#CADCE7" d="M145.101,55.229c0,0-1.624,18.752-26.322,18.752c-6.479,0-2.253,24.037-2.253,24.037l19.669-5.282
	c0,0-3.47-20.681,26.334-18.755l-5.594-10.93L145.101,55.229z"/>
<path fill="#70A7D3" d="M136.195,184.164c0,10.358-7.799,18.752-17.422,18.752s-17.422-8.394-17.422-18.752
	c0-10.364,7.799-18.752,17.422-18.752S136.195,173.799,136.195,184.164"/>
<path fill="#70A7D3" d="M92.444,146.654c0,10.364-7.799,18.758-17.422,18.758c-9.626,0-17.426-8.394-17.426-18.758
	c0-10.358,7.8-18.758,17.426-18.758C84.645,127.896,92.444,136.296,92.444,146.654"/>
<path fill="#70A7D3" d="M92.444,146.654c0,0,1.629,18.758,26.328,18.758c6.476,0,2.253,24.034,2.253,24.034l-19.672-5.282
	c0,0,3.473-20.687-26.331-18.752l5.588-10.935L92.444,146.654z"/>
<path fill="#70A7D3" d="M145.101,146.654c0,10.364,7.799,18.758,17.428,18.758c9.623,0,17.426-8.394,17.426-18.758
	c0-10.358-7.803-18.758-17.426-18.758C152.9,127.896,145.101,136.296,145.101,146.654"/>
<path fill="#70A7D3" d="M145.101,146.654c0,0-1.624,18.758-26.322,18.758c-6.479,0-2.253,24.034-2.253,24.034l19.669-5.282
	c0,0-3.47-20.687,26.334-18.752l-5.594-10.935L145.101,146.654z"/>
</svg>
